<?xml version="1.0" standalone="no"?>
<!DOCTYPE svg PUBLIC "-//W3C//DTD SVG 20010904//EN"
 "http://www.w3.org/TR/2001/REC-SVG-20010904/DTD/svg10.dtd">
<svg version="1.0" xmlns="http://www.w3.org/2000/svg"
 width="16.000000pt" height="16.000000pt" viewBox="0 0 16.000000 16.000000"
 preserveAspectRatio="xMidYMid meet">

<g transform="translate(0.000000,16.000000) scale(0.100000,-0.100000)"
fill="#000000" stroke="none">
<path d="M0 80 l0 -80 80 0 80 0 0 80 0 80 -80 0 -80 0 0 -80z m50 35 c0 -14
4 -25 8 -25 5 0 15 11 22 25 7 14 20 25 28 25 12 0 11 -5 -3 -27 -17 -25 -17
-28 0 -55 21 -37 10 -51 -14 -19 -19 24 -41 22 -41 -5 0 -8 -4 -14 -10 -14 -6
0 -10 27 -10 60 0 33 4 60 10 60 6 0 10 -11 10 -25z"/>
</g>
</svg>
